# xmcd
#
# Track frame offsets:
#	182
#	18012
#	36222
#	57657
#	86837
#
# Disc length: 1486 seconds
#
# Revision: 1
# Processed by: cddbd v1.5.2PL0 Copyright (c) Steve Scherf et al.
# Submitted via: audiograbber 1.83.01
#
DISCID=3905cc05
DTITLE=Supa T. and the Party Animals - Love and Respect [CDs)
DYEAR=1996
DGENRE=Reggae
TTITLE0=Love and Respect (Radio Edit)
TTITLE1=Love and Respect (Levent's radio Edit)
TTITLE2=Love and Respect (Extendet Mix)
TTITLE3=Love and Respect (Levent's extended Mix)
TTITLE4=Gotta Jump (Party animals drop Mix)
EXTD=crg
EXTT0=
EXTT1=
EXTT2=
EXTT3=
EXTT4=
PLAYORDER=
